<svg xmlns="http://www.w3.org/2000/svg" version="1.1" xmlns:xlink="http://www.w3.org/1999/xlink" preserveAspectRatio="none" x="0px" y="0px" width="1280px" height="720px" viewBox="0 0 1280 720">
<defs>
<g id="Layer0_0_FILL">
<path fill="#000000" stroke="none" d="
M 506.65 196.9
Q 505.65 193.9 501.6 187.85 497.5 181.8 495.4 179.4 493.95 177.4 494.35 174.55 494.75 171.65 494.4 169.15 493.6 166.4 489.6 161.15 485.65 155.95 481.65 151.9 478.1 148.15 477.55 146.65 476.95 145.1 477.15 145.15 477.4 145.15 479.6 145.05 481.8 145 483.15 144.65 486.05 143.7 486.65 137.15 486.15 133.95 482 131.6 477.85 129.25 476.4 127.4 475.75 125.7 476.4 123.85 477.05 122 475.65 117.9 474.25 114.7 469.75 108.75 465.2 102.75 460.75 97.35 456.3 91.9 455.15 90.4 454.05 88.65 455.1 87.15 456.15 85.65 456.9 82.65 457.35 79.6 455.2 76.9 453.05 74.2 449.9 69.9 446.45 65.05 435.6 56.55 424.75 48 411.9 39.65 404.4 34.7 404.15 33.55 403.85 32.4 401.75 29.45 399.65 26.55 386.65 16.4 372.55 6.1 357.75 4.1 342.95 2.1 331.3 4.45 319.65 6.75 315.15 9.4 309.4 12.4 305.05 15.35 300.65 18.35 293.65 25.15 289.5 21.6 277.75 15.95 266 10.35 253.95 5.6 241.9 0.9 236.9 0.15 229.95 -0.3 222.3 2 214.6 4.3 210.65 5.4 206.35 6.05 197.05 6.1 187.75 6.15 182.15 6.65 178.4 7.45 169.4 13.45 160.45 19.45 152.55 25.3 144.65 31.2 144.15 31.65 144.5 31.5 149.65 29.45 154.8 27.4 160.4 24.95 166.05 22.5 167.9 21.15 169.7 19.8 174.15 18.4 178.6 17 182.4 16.35 186.25 15.7 186.15 16.65 185.15 18.3 180.2 20.7 175.3 23.1 171.65 24.4 167.75 25.55 160.95 26.95 154.15 28.3 152.9 29.15 151.8 30.1 146.35 32.2 140.9 34.35 137.4 35.15 133.95 35.8 126.4 38.3 118.85 40.85 112.4 44.15 107.8 46.95 96.3 58.2 84.75 69.5 73.45 80.95 62.1 92.45 58.15 95.9 54.6 99 49.6 107.55 44.6 116.15 40.2 125.75 35.8 135.4 34.15 141.65 32.2 148.3 24.95 165.15 17.65 182.05 10.35 199.5 3.1 216.95 1.15 225.4 -0.8 237.7 0.45 248.65 1.7 259.6 2.4 258.65 3.35 256.95 6.7 258.8 10.1 260.6 9.15 263.65 6.9 269.8 7.65 270.4 8.05 270.7 11.4 273.15 14.75 275.6 15.9 276.15 16.8 276.3 18.3 276.45 19.75 276.6 19.9 276.65 19.75 276.9 17.8 281 15.85 285.15 13.85 289.75 11.8 294.35 11.4 296.15 11 298.5 11.3 301 11.55 303.5 12.65 304.4 14 305.1 15.95 305.4 17.95 305.65 18.15 305.65 18 306.05 16.85 309.9 15.75 313.7 15.4 315.65 15.2 317.55 16.1 321.95 17.05 326.3 19.65 327.9 22.35 328.85 23.7 328.85 25.1 328.85 24.4 329.65 23.45 331.4 21.95 338.65 20.45 345.9 20.65 348.65 21 350.65 22.3 352.9 23.55 355.15 26.15 355.9 31.8 356.25 32.9 357.4 32.85 359.6 30.9 364.15 30.1 366.45 28.95 369.45 27.8 372.45 28.9 372.9 30.1 372.85 30.45 372.2 30.8 371.5 31.65 372.65 32.85 374.05 35.8 375.05 38.75 376.05 40.15 375.4 41.45 374.3 42.95 373.85 44.45 373.4 43.9 377.4 42.45 382.1 37.2 387.1 31.95 392.1 31.25 392.5 31.6 392.3 34.95 392.05 38.3 391.85 40 393.75 41.15 395.75 40.9 396.5 40.65 397.25 40.5 397.25 40.65 397.45 42.75 398.9 44.85 400.4 47.25 400.25 49.65 400.3 51.5 404.65 53.4 409 53 412.25 52 415.55 48.7 420.4 45.4 425.25 45 425.75 45.35 426 48.7 427.9 52 429.8 54.25 430.25 56.7 430.6 61.8 431.95 66.9 433.3 67.5 433.5 67.7 433.75 68.75 435.8 69.8 437.85 69.25 438.5 68.2 439.2 65.35 442.4 62.45 445.6 61.25 447.25 60.1 448.75 58.8 451.9 57.5 455.1 58.25 457.75 60.7 463.3 63.5 464 65.25 463.55 70.25 459.15 75.3 454.75 75.75 451.55 75.45 449 73.2 439.35 71 429.7 68.7 419.45 66.4 409.25 65.9 405.05 65.35 399 64.2 389.45 63.05 379.9 62 373.35 61.3 368.5 60.9 353.5 60.5 338.55 60.4 323.9 60.3 309.25 60.65 305.35 61 300.65 61.05 295.7 61.05 290.8 62.4 288.55 63.6 286.85 67.45 280.15 71.3 273.45 75.35 266.45 79.45 259.4 81.3 256.7 84.4 252.55 91.9 245.35 99.4 238.2 104 236.05 108.6 234.1 116.55 229.2 124.55 224.3 128.65 221.35 131.3 219.55 137.6 216.05 143.9 212.55 149.95 209.35 156 206.2 158 205.35 161.35 204.15 170.55 200.3 179.8 196.45 184.65 192.7 192.15 186.05 198.65 185.35 202.05 184.65 203.65 181.7 205.3 178.75 206.65 176.05 208.45 173.25 211.4 170.1 214.35 167 214.65 166.7 214.5 167.1 214.75 170.6 214.95 174.15 217.3 176.05 219.55 177.5 222.3 176.6 225.05 175.75 231.3 172.7 237.4 169.65 241 165.45 244.55 161.25 250.65 156.7 256.55 152.55 260.15 151.8 263.8 151 272.65 149.35 279.3 147.9 289.6 143.15 299.9 138.35 309.95 132.3 320 126.2 326 120.7 326.75 121.3 337.1 130.2 347.5 139.1 358.55 148.9 369.65 158.65 372.4 161.9 376.15 166.75 382.05 175.15 388 183.55 393.4 191.1 398.8 198.65 400.9 200.9 403.2 203.35 410.25 213.55 417.3 223.75 424.2 234.25 431.1 244.75 432.9 248.15 435.35 252.9 440.8 261.65 446.2 270.4 450.15 275.4 453.55 280.2 454.2 287.2 454.9 294.25 454.9 297.55 455.2 299.5 455.95 313.15 456.7 326.8 455.4 344.55 453.35 365.9 450.7 383.15 448.05 400.4 447.6 404.45 447.15 410.3 445.75 418.45 444.35 426.6 444.15 427.4 444.3 427.65 445.85 429.4 447.4 431.15 448.65 431.4 450 431.1 452.45 428.7 454.95 426.25 455.9 424.9 455.95 423.7 452.4 422.7 448.9 421.65 450.6 421.35 452.7 420.8 455.85 418.65 459.05 416.5 459.35 416.2 459.45 416.1 459.55 414.7 459.65 413.3 458.65 412.05 457.25 409.45 461.15 406.15 462.45 404.7 462.65 403.95 462.8 403.2 464.25 402.5 465.75 401.55 466.05 399.5 466.35 397.45 467.6 396.3 469.15 394.95 470.5 391.85 471.8 388.75 471.9 388.4 471.7 388.15 470.8 386.1 469.9 384.05 470.65 382.9 471.75 382.05 473.25 381.45 474.7 380.8 474.15 378.9 473.45 376.95 474.6 375.6 475.8 374.25 478.65 372.15 481.4 369.75 482.2 367.15 483 364.55 482.4 363.15 481.35 361.5 478.15 358.3 475 355.15 475.8 354.45 477.2 353.85 477.9 351.2 478.55 348.6 477 347.05 473.65 345.2 476.7 343.75 478.2 342.4 478.7 340.5 479.2 338.6 479.15 338.4 479.05 338.25 477.55 336.95 476.1 335.6 474.65 334.4 471.25 333.05 476.15 332.85 479.05 331.95 481.25 329.35 483.4 326.8 483.5 326.45 483.25 326.4 482.05 325.75 480.9 325.15 482.1 324.7 483.95 324.4 486.5 324.05 489.1 323.65 488.7 321.7 487.75 319.7 487.1 318.4 486.45 317.15 488.15 315.9 489.9 314.7 490.4 314 490.9 313.3 491.85 311.55 494 307.9 492.4 302.4 491.6 299.85 492.05 299.95 492.45 300 494.65 299 497.05 297.7 498.95 296.05 500.9 294.45 500.65 292.4 500.65 288.3 501.4 288.4 501.65 288.7 503.6 289.7 505.6 290.7 506.4 288.4 507.2 285.75 508.85 283.3 510.5 280.9 510.15 278.65 509.25 276.05 506.6 272.5 504 269 503.65 268.65 504.1 268.7 506.95 268.8 509.75 268.9 509.65 268.4 509.35 266.45 511.65 265.65 512.55 265.35 513.95 262.4 515.35 259.4 515.15 256.9 514.35 254.4 511.2 251.65 508.05 248.85 507.65 248.65 508.3 248.2 511.15 248.15 514.1 248.5 509.9 239.15 507.15 233.8 501.8 224.3 496.45 214.85 492.4 209.15 488.8 204.25 487.9 203.1
L 487.15 202.15
Q 487.8 202.65 493.2 206.4 498.65 210.15 501.15 210.9 503.2 211.35 505.35 211.6 507.5 211.85 507.65 208.4 507.7 201.3 506.65 196.9 Z"/>
</g>
</defs>

<g transform="matrix( 1, 0, 0, 1, 353.95,120) ">
<use xlink:href="#Layer0_0_FILL"/>
</g>
</svg>
